<svg width="275" height="59" viewBox="0 0 275 59" fill="none" xmlns="http://www.w3.org/2000/svg">
<path d="M42.196 53.793H16.4461V56.2638H42.196V53.793Z" fill="#B0D944"/>
<path d="M42.1961 54.7744H0V57.7501H42.1961V54.7744Z" fill="#B0D944"/>
<path d="M42.196 49.3101H16.4461V51.7809H42.196V49.3101Z" fill="#B0D944"/>
<path d="M42.1961 50.291H0V53.2667H42.1961V50.291Z" fill="#B0D944"/>
<path d="M42.196 44.8262H16.4461V47.297H42.196V44.8262Z" fill="#B0D944"/>
<path d="M42.1961 45.8071H0V48.7828H42.1961V45.8071Z" fill="#B0D944"/>
<path d="M42.196 40.3442H16.4461V42.8151H42.196V40.3442Z" fill="#B0D944"/>
<path d="M42.1961 41.3252H0V44.3009H42.1961V41.3252Z" fill="#B0D944"/>
<path d="M42.196 35.8608H16.4461V38.3317H42.196V35.8608Z" fill="#B0D944"/>
<path d="M42.1961 36.8457H0V39.8214H42.1961V36.8457Z" fill="#B0D944"/>
<path d="M42.196 31.3774H16.4461V33.8483H42.196V31.3774Z" fill="#B0D944"/>
<path d="M42.1961 32.3618H0V35.3375H42.1961V32.3618Z" fill="#B0D944"/>
<path d="M42.196 26.8945H16.4461V29.3654H42.196V26.8945Z" fill="#B0D944"/>
<path d="M42.1961 27.8799H0V30.8555H42.1961V27.8799Z" fill="#B0D944"/>
<path d="M12.084 23.3965H2.78732V26.3721H12.084V23.3965Z" fill="#B0D944"/>
<path d="M38.8471 22.4155H33.0309V24.8864H38.8471V22.4155Z" fill="#B0D944"/>
<path d="M12.0803 22.4155H6.26411V24.8864H12.0803V22.4155Z" fill="#B0D944"/>
<path d="M38.8471 23.3965H29.5503V26.3721H38.8471V23.3965Z" fill="#B0D944"/>
<path d="M12.084 18.9126H2.78732V21.8883H12.084V18.9126Z" fill="#B0D944"/>
<path d="M38.8471 17.9321H33.0309V20.403H38.8471V17.9321Z" fill="#B0D944"/>
<path d="M12.0803 17.9321H6.26411V20.403H12.0803V17.9321Z" fill="#B0D944"/>
<path d="M38.8471 18.9126H29.5503V21.8883H38.8471V18.9126Z" fill="#B0D944"/>
<path d="M12.084 14.4302H2.78732V17.4058H12.084V14.4302Z" fill="#B0D944"/>
<path d="M38.8471 13.4492H33.0309V15.9201H38.8471V13.4492Z" fill="#B0D944"/>
<path d="M12.0803 13.4492H6.26411V15.9201H12.0803V13.4492Z" fill="#B0D944"/>
<path d="M38.8471 14.4302H29.5503V17.4058H38.8471V14.4302Z" fill="#B0D944"/>
<path d="M13.915 9.95117H4.61827V12.9268H13.915V9.95117Z" fill="#B0D944"/>
<path d="M37.201 8.96582H31.3848V11.4366H37.201V8.96582Z" fill="#B0D944"/>
<path d="M13.9113 8.96582H8.09506V11.4366H13.9113V8.96582Z" fill="#B0D944"/>
<path d="M37.2012 9.95117H27.9045V12.9268H37.2012V9.95117Z" fill="#B0D944"/>
<path d="M33.7421 4.4834H16.2045V6.95423H33.7421V4.4834Z" fill="#B0D944"/>
<path d="M33.7455 5.46729H8.09506V8.44295H33.7455V5.46729Z" fill="#B0D944"/>
<path d="M30.0233 0H17.175V2.47083H30.0233V0Z" fill="#B0D944"/>
<path d="M30.0232 0.984863H11.0992V3.96053H30.0232V0.984863Z" fill="#B0D944"/>
<path d="M72.0281 4C74.8121 4 77.1881 4.36 79.1561 5.08C81.1721 5.8 82.8281 6.784 84.1241 8.032C85.4201 9.232 86.3561 10.648 86.9321 12.28C87.5561 13.912 87.8681 15.64 87.8681 17.464C87.8681 19.24 87.5561 20.992 86.9321 22.72C86.3561 24.448 85.4201 25.984 84.1241 27.328C82.8281 28.624 81.1721 29.68 79.1561 30.496C77.1881 31.312 74.8121 31.72 72.0281 31.72H69.7961V48.64C69.7961 50.368 69.8201 51.784 69.8681 52.888C69.9641 53.992 70.1561 54.856 70.4441 55.48C70.7321 56.056 71.1881 56.464 71.8121 56.704C72.4361 56.896 73.3001 56.992 74.4041 56.992V58H57.9161V56.992C59.0681 56.992 59.9561 56.896 60.5801 56.704C61.2041 56.464 61.6601 56.056 61.9481 55.48C62.2361 54.856 62.4041 53.992 62.4521 52.888C62.5481 51.784 62.5961 50.368 62.5961 48.64V12.352C62.5961 10.816 62.5481 9.568 62.4521 8.608C62.3561 7.648 62.1401 6.904 61.8041 6.376C61.5161 5.848 61.0601 5.488 60.4361 5.296C59.8601 5.104 59.0201 5.008 57.9161 5.008V4H72.0281ZM72.0281 29.92C74.9081 29.872 77.0201 28.84 78.3641 26.824C79.7561 24.808 80.4521 21.688 80.4521 17.464C80.4521 15.352 80.2361 13.576 79.8041 12.136C79.3721 10.648 78.7961 9.448 78.0761 8.536C77.4041 7.576 76.6121 6.88 75.7001 6.448C74.7881 6.016 73.8281 5.8 72.8201 5.8C71.7641 5.8 70.9961 6.184 70.5161 6.952C70.0361 7.672 69.7961 8.68 69.7961 9.976V29.92H72.0281ZM95.2599 37.912C95.2599 43.576 95.9079 47.896 97.2039 50.872C98.4999 53.848 100.252 55.336 102.46 55.336C103.228 55.336 103.9 55.168 104.476 54.832C105.052 54.496 105.58 54.064 106.06 53.536C106.54 53.008 106.948 52.408 107.284 51.736C107.62 51.064 107.908 50.368 108.148 49.648C108.676 47.968 109.06 46.072 109.3 43.96H111.316C111.076 46.696 110.548 49.144 109.732 51.304C109.396 52.216 108.964 53.128 108.436 54.04C107.956 54.952 107.356 55.744 106.636 56.416C105.964 57.088 105.172 57.64 104.26 58.072C103.348 58.504 102.292 58.72 101.092 58.72C97.3479 58.72 94.3239 56.92 92.0199 53.32C89.7159 49.672 88.5639 44.536 88.5639 37.912C88.5639 35.176 88.8039 32.56 89.2839 30.064C89.7639 27.52 90.5079 25.312 91.5159 23.44C92.5719 21.52 93.8919 20.008 95.4759 18.904C97.1079 17.752 99.0279 17.176 101.236 17.176C103.348 17.176 105.124 17.776 106.564 18.976C108.052 20.128 109.252 21.664 110.164 23.584C111.076 25.504 111.724 27.688 112.108 30.136C112.54 32.536 112.756 34.96 112.756 37.408V37.912H95.2599ZM101.236 18.976C99.3159 18.976 97.8519 20.464 96.8439 23.44C95.8839 26.368 95.3559 30.592 95.2599 36.112H106.708C106.708 32.992 106.564 30.352 106.276 28.192C106.036 26.032 105.676 24.28 105.196 22.936C104.716 21.544 104.14 20.536 103.468 19.912C102.796 19.288 102.052 18.976 101.236 18.976ZM139.25 48.64C139.25 50.512 139.298 52 139.394 53.104C139.49 54.208 139.682 55.048 139.97 55.624C140.306 56.2 140.786 56.584 141.41 56.776C142.034 56.92 142.85 56.992 143.858 56.992V58H132.554V52.312C131.738 54.376 130.634 55.96 129.242 57.064C127.85 58.168 126.29 58.72 124.562 58.72C123.362 58.72 122.21 58.552 121.106 58.216C120.002 57.928 119.042 57.424 118.226 56.704C117.458 55.936 116.834 54.952 116.354 53.752C115.874 52.552 115.634 51.064 115.634 49.288C115.634 47.176 116.042 45.376 116.858 43.888C117.722 42.4 118.778 41.128 120.026 40.072C121.274 38.968 122.618 38.032 124.058 37.264C125.546 36.496 126.914 35.776 128.162 35.104C129.41 34.432 130.442 33.76 131.258 33.088C132.122 32.416 132.554 31.648 132.554 30.784V30.064C132.554 26.8 131.93 24.304 130.682 22.576C129.434 20.848 127.802 19.984 125.786 19.984C124.298 19.984 123.026 20.44 121.97 21.352C120.914 22.264 120.146 23.728 119.666 25.744C120.05 25.6 120.458 25.528 120.89 25.528C121.946 25.528 122.834 25.912 123.554 26.68C124.322 27.4 124.706 28.312 124.706 29.416C124.706 30.472 124.322 31.384 123.554 32.152C122.834 32.872 121.946 33.232 120.89 33.232C119.786 33.232 118.85 32.872 118.082 32.152C117.362 31.384 117.002 30.472 117.002 29.416C117.002 27.64 117.266 26.008 117.794 24.52C118.37 23.032 119.162 21.76 120.17 20.704C121.178 19.6 122.378 18.736 123.77 18.112C125.162 17.488 126.698 17.176 128.378 17.176C129.914 17.176 131.354 17.464 132.698 18.04C134.042 18.616 135.194 19.528 136.154 20.776C137.114 21.976 137.858 23.536 138.386 25.456C138.962 27.328 139.25 29.608 139.25 32.296V48.64ZM132.554 34.168C131.786 34.984 130.802 35.752 129.602 36.472C128.45 37.144 127.322 37.96 126.218 38.92C125.162 39.88 124.25 41.08 123.482 42.52C122.714 43.912 122.33 45.736 122.33 47.992C122.33 50.776 122.666 52.696 123.338 53.752C124.01 54.808 124.946 55.336 126.146 55.336C127.634 55.336 128.978 54.616 130.178 53.176C131.378 51.736 132.17 49.624 132.554 46.84V34.168ZM167.003 17.176C168.203 17.224 169.211 17.68 170.027 18.544C170.891 19.36 171.323 20.392 171.323 21.64C171.323 22.888 170.867 23.968 169.955 24.88C169.091 25.744 168.035 26.176 166.787 26.176C165.539 26.176 164.483 25.744 163.619 24.88C162.755 23.968 162.323 22.888 162.323 21.64C162.323 21.304 162.371 20.896 162.467 20.416C161.267 21.376 160.211 22.72 159.299 24.448C158.435 26.176 157.715 28.048 157.139 30.064C156.563 32.08 156.131 34.096 155.843 36.112C155.603 38.128 155.483 39.928 155.483 41.512V48.64C155.483 50.512 155.531 52 155.627 53.104C155.723 54.208 155.915 55.048 156.203 55.624C156.539 56.2 156.995 56.584 157.571 56.776C158.195 56.92 159.011 56.992 160.019 56.992V58H144.251V56.992C145.259 56.992 146.051 56.92 146.627 56.776C147.251 56.584 147.707 56.2 147.995 55.624C148.331 55.048 148.547 54.208 148.643 53.104C148.739 52 148.787 50.512 148.787 48.64V30.136C148.787 28.696 148.691 27.52 148.499 26.608C148.355 25.648 148.091 24.904 147.707 24.376C147.371 23.848 146.915 23.488 146.339 23.296C145.763 23.104 145.067 23.008 144.251 23.008V22C146.555 21.904 148.595 21.544 150.371 20.92C152.147 20.248 153.515 19.24 154.475 17.896H155.483V29.416C155.915 27.688 156.467 26.08 157.139 24.592C157.811 23.104 158.603 21.808 159.515 20.704C160.475 19.6 161.555 18.736 162.755 18.112C163.955 17.488 165.299 17.176 166.787 17.176H166.859H167.003ZM185.091 4C187.875 4 190.251 4.36 192.219 5.08C194.235 5.8 195.891 6.784 197.187 8.032C198.483 9.232 199.419 10.648 199.995 12.28C200.619 13.912 200.931 15.64 200.931 17.464C200.931 19.24 200.619 20.992 199.995 22.72C199.419 24.448 198.483 25.984 197.187 27.328C195.891 28.624 194.235 29.68 192.219 30.496C190.251 31.312 187.875 31.72 185.091 31.72H182.859V48.64C182.859 50.368 182.883 51.784 182.931 52.888C183.027 53.992 183.219 54.856 183.507 55.48C183.795 56.056 184.251 56.464 184.875 56.704C185.499 56.896 186.363 56.992 187.467 56.992V58H170.979V56.992C172.131 56.992 173.019 56.896 173.643 56.704C174.267 56.464 174.723 56.056 175.011 55.48C175.299 54.856 175.467 53.992 175.515 52.888C175.611 51.784 175.659 50.368 175.659 48.64V12.352C175.659 10.816 175.611 9.568 175.515 8.608C175.419 7.648 175.203 6.904 174.867 6.376C174.579 5.848 174.123 5.488 173.499 5.296C172.923 5.104 172.083 5.008 170.979 5.008V4H185.091ZM185.091 29.92C187.971 29.872 190.083 28.84 191.427 26.824C192.819 24.808 193.515 21.688 193.515 17.464C193.515 15.352 193.299 13.576 192.867 12.136C192.435 10.648 191.859 9.448 191.139 8.536C190.467 7.576 189.675 6.88 188.763 6.448C187.851 6.016 186.891 5.8 185.883 5.8C184.827 5.8 184.059 6.184 183.579 6.952C183.099 7.672 182.859 8.68 182.859 9.976V29.92H185.091ZM224.891 48.64C224.891 50.512 224.939 52 225.035 53.104C225.131 54.208 225.323 55.048 225.611 55.624C225.947 56.2 226.427 56.584 227.051 56.776C227.675 56.92 228.491 56.992 229.499 56.992V58H218.195V52.312C217.379 54.376 216.275 55.96 214.883 57.064C213.491 58.168 211.931 58.72 210.203 58.72C209.003 58.72 207.851 58.552 206.747 58.216C205.643 57.928 204.683 57.424 203.867 56.704C203.099 55.936 202.475 54.952 201.995 53.752C201.515 52.552 201.275 51.064 201.275 49.288C201.275 47.176 201.683 45.376 202.499 43.888C203.363 42.4 204.419 41.128 205.667 40.072C206.915 38.968 208.259 38.032 209.699 37.264C211.187 36.496 212.555 35.776 213.803 35.104C215.051 34.432 216.083 33.76 216.899 33.088C217.763 32.416 218.195 31.648 218.195 30.784V30.064C218.195 26.8 217.571 24.304 216.323 22.576C215.075 20.848 213.443 19.984 211.427 19.984C209.939 19.984 208.667 20.44 207.611 21.352C206.555 22.264 205.787 23.728 205.307 25.744C205.691 25.6 206.099 25.528 206.531 25.528C207.587 25.528 208.475 25.912 209.195 26.68C209.963 27.4 210.347 28.312 210.347 29.416C210.347 30.472 209.963 31.384 209.195 32.152C208.475 32.872 207.587 33.232 206.531 33.232C205.427 33.232 204.491 32.872 203.723 32.152C203.003 31.384 202.643 30.472 202.643 29.416C202.643 27.64 202.907 26.008 203.435 24.52C204.011 23.032 204.803 21.76 205.811 20.704C206.819 19.6 208.019 18.736 209.411 18.112C210.803 17.488 212.339 17.176 214.019 17.176C215.555 17.176 216.995 17.464 218.339 18.04C219.683 18.616 220.835 19.528 221.795 20.776C222.755 21.976 223.499 23.536 224.027 25.456C224.603 27.328 224.891 29.608 224.891 32.296V48.64ZM218.195 34.168C217.427 34.984 216.443 35.752 215.243 36.472C214.091 37.144 212.963 37.96 211.859 38.92C210.803 39.88 209.891 41.08 209.123 42.52C208.355 43.912 207.971 45.736 207.971 47.992C207.971 50.776 208.307 52.696 208.979 53.752C209.651 54.808 210.587 55.336 211.787 55.336C213.275 55.336 214.619 54.616 215.819 53.176C217.019 51.736 217.811 49.624 218.195 46.84V34.168ZM239.908 18.976C239.524 18.976 239.116 19.048 238.684 19.192C238.252 19.288 237.844 19.528 237.46 19.912C237.124 20.248 236.836 20.776 236.596 21.496C236.356 22.216 236.236 23.152 236.236 24.304C236.236 25.744 236.596 27.136 237.316 28.48C238.036 29.776 238.924 31.048 239.98 32.296C241.084 33.544 242.26 34.792 243.508 36.04C244.804 37.288 245.98 38.608 247.036 40C248.14 41.344 249.052 42.784 249.772 44.32C250.492 45.856 250.852 47.512 250.852 49.288C250.852 50.488 250.684 51.664 250.348 52.816C250.012 53.92 249.46 54.928 248.692 55.84C247.924 56.704 246.94 57.4 245.74 57.928C244.588 58.456 243.172 58.72 241.492 58.72C240.484 58.72 239.596 58.6 238.828 58.36C238.06 58.168 237.34 57.952 236.668 57.712C236.044 57.424 235.468 57.184 234.94 56.992C234.412 56.752 233.884 56.632 233.356 56.632C233.164 56.632 233.02 56.704 232.924 56.848C232.828 56.992 232.732 57.136 232.636 57.28C232.54 57.52 232.492 57.76 232.492 58H231.7V43.672H232.708C233.14 46.168 233.716 48.376 234.436 50.296C234.868 51.4 235.348 52.48 235.876 53.536C236.452 54.544 237.124 55.36 237.892 55.984C238.66 56.608 239.524 56.92 240.484 56.92C241.636 56.92 242.524 56.512 243.148 55.696C243.82 54.832 244.156 53.392 244.156 51.376C244.156 49.6 243.796 47.968 243.076 46.48C242.356 44.992 241.444 43.6 240.34 42.304C239.284 41.008 238.108 39.76 236.812 38.56C235.564 37.312 234.388 36.04 233.284 34.744C232.228 33.4 231.34 32.008 230.62 30.568C229.9 29.128 229.54 27.52 229.54 25.744C229.54 23.344 230.284 21.328 231.772 19.696C233.26 18.016 235.684 17.176 239.044 17.176C240.052 17.176 240.892 17.296 241.564 17.536C242.284 17.728 242.908 17.944 243.436 18.184C243.964 18.424 244.444 18.664 244.876 18.904C245.356 19.096 245.836 19.192 246.316 19.192C246.556 19.192 246.724 19.12 246.82 18.976C246.916 18.832 246.988 18.688 247.036 18.544C247.132 18.352 247.18 18.136 247.18 17.896H247.972V29.632H246.964C246.532 27.664 245.98 25.888 245.308 24.304C244.732 22.96 243.988 21.736 243.076 20.632C242.212 19.528 241.156 18.976 239.908 18.976ZM262.971 18.976C262.587 18.976 262.179 19.048 261.747 19.192C261.315 19.288 260.907 19.528 260.523 19.912C260.187 20.248 259.899 20.776 259.659 21.496C259.419 22.216 259.299 23.152 259.299 24.304C259.299 25.744 259.659 27.136 260.379 28.48C261.099 29.776 261.987 31.048 263.043 32.296C264.147 33.544 265.323 34.792 266.571 36.04C267.867 37.288 269.043 38.608 270.099 40C271.203 41.344 272.115 42.784 272.835 44.32C273.555 45.856 273.915 47.512 273.915 49.288C273.915 50.488 273.747 51.664 273.411 52.816C273.075 53.92 272.523 54.928 271.755 55.84C270.987 56.704 270.003 57.4 268.803 57.928C267.651 58.456 266.235 58.72 264.555 58.72C263.547 58.72 262.659 58.6 261.891 58.36C261.123 58.168 260.403 57.952 259.731 57.712C259.107 57.424 258.531 57.184 258.003 56.992C257.475 56.752 256.947 56.632 256.419 56.632C256.227 56.632 256.083 56.704 255.987 56.848C255.891 56.992 255.795 57.136 255.699 57.28C255.603 57.52 255.555 57.76 255.555 58H254.763V43.672H255.771C256.203 46.168 256.779 48.376 257.499 50.296C257.931 51.4 258.411 52.48 258.939 53.536C259.515 54.544 260.187 55.36 260.955 55.984C261.723 56.608 262.587 56.92 263.547 56.92C264.699 56.92 265.587 56.512 266.211 55.696C266.883 54.832 267.219 53.392 267.219 51.376C267.219 49.6 266.859 47.968 266.139 46.48C265.419 44.992 264.507 43.6 263.403 42.304C262.347 41.008 261.171 39.76 259.875 38.56C258.627 37.312 257.451 36.04 256.347 34.744C255.291 33.4 254.403 32.008 253.683 30.568C252.963 29.128 252.603 27.52 252.603 25.744C252.603 23.344 253.347 21.328 254.835 19.696C256.323 18.016 258.747 17.176 262.107 17.176C263.115 17.176 263.955 17.296 264.627 17.536C265.347 17.728 265.971 17.944 266.499 18.184C267.027 18.424 267.507 18.664 267.939 18.904C268.419 19.096 268.899 19.192 269.379 19.192C269.619 19.192 269.787 19.12 269.883 18.976C269.979 18.832 270.051 18.688 270.099 18.544C270.195 18.352 270.243 18.136 270.243 17.896H271.035V29.632H270.027C269.595 27.664 269.043 25.888 268.371 24.304C267.795 22.96 267.051 21.736 266.139 20.632C265.275 19.528 264.219 18.976 262.971 18.976Z" fill="#F6F6F6"/>
</svg>
